HIERARCHY
ROOT Hips
{
  OFFSET 263.056 91.6644 -274.608
  CHANNELS 6 Xposition Yposition Zposition Zrotation Xrotation Yrotation
  JOINT LeftUpLeg
  {
    OFFSET 8.64259 1.95398 -2.38835
    CHANNELS 3 Zrotation Xrotation Yrotation
    JOINT LeftLeg
    {
      OFFSET 43.7702 0 0
      CHANNELS 3 Zrotation Xrotation Yrotation
      JOINT LeftFoot
      {
        OFFSET 40.6238 0 0
        CHANNELS 3 Zrotation Xrotation Yrotation
        JOINT LeftToeBase
        {
          OFFSET 12.7242 0 0
          CHANNELS 3 Zrotation Xrotation Yrotation
          End Site
          {
            OFFSET 0 0 0
          }
        }
      }
    }
  }
  JOINT RightUpLeg
  {
    OFFSET -8.2249 1.95398 -2.59336
    CHANNELS 3 Zrotation Xrotation Yrotation
    JOINT RightLeg
    {
      OFFSET 43.5653 0 0
      CHANNELS 3 Zrotation Xrotation Yrotation
      JOINT RightFoot
      {
        OFFSET 40.6238 0 0
        CHANNELS 3 Zrotation Xrotation Yrotation
        JOINT RightToeBase
        {
          OFFSET 12.7242 0 0
          CHANNELS 3 Zrotation Xrotation Yrotation
          End Site
          {
            OFFSET 0 0 0
          }
        }
      }
    }
  }
  JOINT Spine
  {
    OFFSET 0.165834 0.87714 6.61349
    CHANNELS 3 Zrotation Xrotation Yrotation
    JOINT Spine1
    {
      OFFSET 7.38963 1.71661e-005 0
      CHANNELS 3 Zrotation Xrotation Yrotation
      JOINT Spine2
      {
        OFFSET 11.9445 1.14441e-005 0
        CHANNELS 3 Zrotation Xrotation Yrotation
        JOINT Spine3
        {
          OFFSET 14.7254 4.19617e-005 0
          CHANNELS 3 Zrotation Xrotation Yrotation
          JOINT Spine4
          {
            OFFSET 10.9679 0 0
            CHANNELS 3 Zrotation Xrotation Yrotation
            JOINT RightShoulder
            {
              OFFSET 2.46616 -1.6653 3.69651
              CHANNELS 3 Zrotation Xrotation Yrotation
              JOINT RightArm
              {
                OFFSET 13.0012 0 0
                CHANNELS 3 Zrotation Xrotation Yrotation
                JOINT RightForeArm
                {
                  OFFSET 28.7848 1.52588e-005 0
                  CHANNELS 3 Zrotation Xrotation Yrotation
                  JOINT RightHand
                  {
                    OFFSET 26.5688 1.52588e-005 0
                    CHANNELS 3 Zrotation Xrotation Yrotation
                    End Site
                    {
                      OFFSET 0 0 0
                    }
                  }
                }
              }
            }
            JOINT LeftShoulder
            {
              OFFSET 2.38034 -1.29275 -3.7523
              CHANNELS 3 Zrotation Xrotation Yrotation
              JOINT LeftArm
              {
                OFFSET 16.3182 6.10352e-005 0
                CHANNELS 3 Zrotation Xrotation Yrotation
                JOINT LeftForeArm
                {
                  OFFSET 27.0901 0 0
                  CHANNELS 3 Zrotation Xrotation Yrotation
                  JOINT LeftHand
                  {
                    OFFSET 24.5451 1.52588e-005 0
                    CHANNELS 3 Zrotation Xrotation Yrotation
                    End Site
                    {
                      OFFSET 0 0 0
                    }
                  }
                }
              }
            }
            JOINT Neck
            {
              OFFSET 5.0226 -0.0266342 0
              CHANNELS 3 Zrotation Xrotation Yrotation
              JOINT Head
              {
                OFFSET 6.69364 2.86102e-005 0
                CHANNELS 3 Zrotation Xrotation Yrotation
                End Site
                {
                  OFFSET 0 0 0
                }
              }
            }
          }
        }
      }
    }
  }
}
MOTION
Frames:	15
Frame Time:	0.0416667
115.719 24.4911 117.784 12.2577 2.44266 43.1051 -147.334 47.5637 92.3637 -70.7835 36.5446 -12.3526 51.4676 -5.55653 6.78495 45.32 32.9443 41.18 178.356 1.86129 82.8738 -16.5635 -9.13585 -5.09829 45.1473 2.85541 2.71558 36.3905 0.485273 4.37813 -1.07815 7.6649 -89.9331 11.549 -2.11349 0.350612 -0.120252 -2.096 0.44333 -22.6691 -2.1211 -0.301081 -2.65645 -2.1211 -0.301081 91.8145 -29.4875 -103.316 -1.83083 44.2453 -42.6318 120.527 -51.3084 -75.6502 18.8113 -2.77817 -25.4992 -92.7398 -23.1815 65.0253 177.443 -74.9005 157.324 4.65745 25.7963 -131.048 20.7469 3.65697 13.8037 19.6979 -6.68644 -5.45496 32.8595 -4.22812 1.09341 
108.584 23.0613 115.887 16.5447 3.78443 42.7345 -143.316 55.1635 92.7571 -84.2657 40.324 -9.08473 51.3426 -5.81194 5.88965 45.5721 32.6477 39.8101 177.655 -1.88732 85.3239 -7.65866 -7.26795 -3.1145 40.0312 3.00181 3.09398 38.3294 0.851816 11.4429 -1.35819 7.34043 -89.4432 12.2088 -2.43581 1.38379 0.539292 -2.37255 1.48969 -22.0126 -2.73902 0.58732 -1.99998 -2.73902 0.587339 93.8308 -24.1883 -100.809 4.4588 50.0328 -44.8847 162.432 -20.9965 -51.0188 5.87558 -1.32599 -39.5444 -90.0419 -15.0996 66.6947 151.432 -86.2717 124.834 5.36751 18.9426 -113.894 19.1954 2.78616 10.6613 8.49473 -6.24456 -14.375 40.9308 -0.899942 4.24821 
102.402 20.6975 113.495 21.016 4.26044 42.0121 -144.542 60.3994 96.2234 -94.5967 46.1592 -6.54964 50.9918 -6.14763 6.67054 46.1909 35.2616 41.621 177.503 -0.178497 85.5581 -15.2718 -3.98709 -2.8411 44.9379 0.549551 0.888532 46.3396 4.68648 35.1126 -1.41547 7.10022 -89.074 12.6951 -2.3689 2.12995 1.0244 -2.27288 2.2321 -21.5217 -2.89943 1.31933 -1.50903 -2.89942 1.31933 94.7459 -21.3212 -99.6584 -3.92209 51.7821 -38.1389 -49.4554 24.434 -115.478 -23.0047 5.58701 -24.3876 -90.2735 -11.1752 63.6661 36.4929 -78.9982 -0.647427 5.97067 12.0909 -92.2907 18.3962 2.06517 7.33059 -0.158533 -6.11349 -19.7295 46.857 0.475499 6.61947 
98.7655 17.7374 111.37 22.8521 5.54074 41.9188 -143.866 64.412 98.2903 -102.237 48.2624 -4.50577 49.9932 -7.1989 5.38239 46.2394 34.6056 40.5034 178.142 -4.09479 85.4375 -15.1083 -8.96191 -3.44945 57.8534 -3.9233 -2.42912 58.9163 9.00399 33.6801 -1.39844 6.65225 -88.9828 13.5903 -2.2799 2.33514 1.9191 -2.17495 2.43319 -20.6235 -2.87619 1.54191 -0.610855 -2.8762 1.5419 96.6169 -13.5067 -97.7289 -5.84655 50.3286 -33.2965 -20.7569 8.78259 -125.231 -10.5573 -1.75574 12.8159 -89.7681 -7.30982 62.2342 29.0689 -71.8306 -10.5407 8.30185 7.70027 -81.8868 18.721 1.81452 5.79135 -3.98347 -6.03558 -24.5516 49.2226 2.59353 10.3453 
96.7915 15.5785 110.301 21.4666 6.41013 40.368 -141.51 65.5084 98.382 -103.461 53.483 -5.03565 50.379 -8.04971 5.56338 46.7179 37.4202 42.888 177.669 -7.81611 85.1736 -8.6276 -12.1777 -4.10665 66.2849 -7.70674 -4.3301 69.6546 9.68744 22.8768 -1.1285 6.31633 -88.835 14.2558 -1.66376 2.56875 2.58319 -1.54914 2.63944 -19.9475 -2.35874 1.95023 0.0651312 -2.35872 1.95022 99.9604 -2.5938 -90.3804 8.98752 51.5316 -39.4569 -22.288 6.77032 -121.942 -9.99817 -1.15381 8.73409 -90.5087 -4.24327 57.5675 41.8938 -65.9619 0.71124 5.15176 4.35882 -72.8365 25.1561 1.72102 3.01554 -2.8083 -6.77213 -27.2704 48.0087 3.90714 13.573 
95.9107 14.5648 109.941 20.5889 4.79205 40.1028 -141.904 66.1792 102.258 -105.23 54.7581 -4.89114 50.1478 -8.36809 5.67389 49.5763 39.6372 37.5007 177.959 -9.0973 84.3913 -8.71857 -15.8009 -4.11872 65.6845 -7.66435 -4.38816 73.0548 8.1005 15.524 -0.684464 6.39956 -88.6636 14.077 -0.702155 2.77789 2.4033 -0.579275 2.80606 -20.1143 -1.50435 2.43877 -0.101618 -1.50435 2.43875 102.209 24.8765 -93.1677 33.4798 55.5444 -29.6919 -19.2277 1.21572 -125.778 -13.4135 -1.62043 10.2789 -88.8906 -1.44377 59.6561 43.4979 -62.0405 14.6201 -3.04287 -0.784917 -90.9815 40.6438 4.46061 7.19719 2.92969 -8.74467 -25.689 42.4995 2.83392 15.2044 
95.9208 14.71 110.59 21.7733 5.75931 40.2429 -141.681 67.2642 101.063 -107.345 50.2879 -3.47514 50.8819 -6.3834 8.15046 55.2883 38.8913 21.2041 178.464 -9.08115 84.8276 -8.69903 -14.5945 -3.6064 64.6063 -7.99767 -3.88183 73.1982 7.83648 14.7086 -0.740138 6.79265 -88.358 13.2865 -0.676283 3.37332 1.61128 -0.527245 3.39976 -20.8958 -1.6584 3.01469 -0.883166 -1.65839 3.0147 120.166 65.0145 -119.764 -91.8737 81.1021 147.348 -7.04564 -15.6711 -132.109 -15.8048 -1.48429 8.32069 -95.4077 -19.2496 56.7343 45.1013 -51.7477 37.122 23.4476 4.76197 -144.218 49.0265 12.1912 20.2867 11.0857 -11.4092 -27.6934 35.9911 1.40345 15.2359 
96.1291 16.606 110.829 23.5735 5.98032 43.9619 -148.385 66.0875 105.667 -106.949 37.081 -1.58253 50.8535 -5.51906 8.49561 59.2419 34.9186 4.00805 -179.978 -6.34667 89.9485 -13.7574 -13.3992 -3.26326 61.3636 -5.89612 -3.27977 75.5528 9.43131 17.5184 -0.963848 7.4779 -88.3452 11.9239 -1.13726 3.41882 0.248777 -0.985781 3.46547 -22.2624 -2.11177 2.91967 -2.24971 -2.11178 2.91966 102.85 30.9232 158.763 108.852 11.1202 60.9982 -133.279 46.8682 -176.067 -7.31196 -1.04266 -3.94192 -103.34 -35.9854 52.5928 19.0218 -27.0149 31.7876 34.3781 -26.2258 -143.077 53.6574 16.7817 26.8379 15.2402 -12.3614 -24.5716 34.3343 -2.20467 8.14512 
97.0063 18.9056 108.941 21.8047 5.86972 47.7751 -154.369 54.5679 108.481 -95.0177 30.3517 -3.35961 49.9803 -6.56547 8.14302 58.5872 31.1304 -3.06209 178.033 0.313276 91.0622 -21.4877 -8.61353 -1.72236 61.9836 -3.56229 -2.19373 72.6201 9.64679 20.2934 -0.924881 7.7044 -88.4766 11.4711 -1.12822 3.14952 -0.203248 -0.988598 3.19607 -22.7189 -2.02232 2.66539 -2.7063 -2.02235 2.66539 -83.0289 -43.4715 95.0834 -141.205 53.4612 -16.421 -24.0993 20.0678 -102.668 -16.0853 -2.19273 10.5782 -105.294 -39.0077 51.092 18.6998 -21.9847 20.5681 40.0973 -35.6264 -139.106 41.3491 14.0923 30.0791 17.594 -12.2278 -16.4289 33.0601 -6.98572 -0.590797 
97.0769 21.0749 104.51 13.2635 -0.352887 51.4534 -156.566 34.6473 108.016 -68.4775 27.154 -7.64086 42.4229 -14.2012 -2.15077 51.9968 26.0678 1.8765 176.976 11.0737 89.953 -33.442 -8.65225 -0.199048 62.7359 -1.21294 -0.738576 73.015 14.0947 32.3838 -0.0375066 7.55035 -88.7011 11.761 0.535575 2.53096 0.087794 0.646423 2.50494 -22.4278 -0.249586 2.57491 -2.41518 -0.249575 2.5749 -87.9365 -32.3777 93.0484 -140.257 65.0205 -25.0591 -23.3097 12.408 -105.344 -18.0172 -2.37603 10.1718 -113.032 -41.6806 41.0732 25.7008 -36.2683 22.9887 33.7944 -33.9391 -147.07 35.9229 11.1477 27.2155 19.0829 -11.845 -17.4747 30.9629 -6.21068 -0.865563 
96.3421 21.4831 99.5518 6.3464 -6.46829 52.8885 -165.638 13.2977 102.7 -35.3585 19.5015 -3.80268 35.9041 -17.3366 -7.97634 42.402 15.6785 3.85048 175.32 18.164 89.7351 -42.1753 -12.9257 1.6049 67.4123 -2.17263 -1.16007 80.6848 14.7504 26.8303 0.360729 7.24663 -88.715 12.3601 1.32699 2.41547 0.687788 1.432 2.35479 -21.8309 0.539982 2.7024 -1.81826 0.539984 2.70241 -72.8403 -35.4347 100.725 -139.275 62.1808 -19.173 -19.6638 3.00968 -102.612 -22.2442 -2.42851 7.66535 -119.774 -41.856 31.7179 60.2562 -58.7357 49.6214 18.3271 -16.4133 -162.43 30.1591 8.08502 23.164 15.4119 -8.81962 -22.6597 33.7945 -2.02444 0.357467 
95.4694 19.9228 94.3879 -0.628584 -11.5129 55.9669 -170.939 2.61559 99.3677 -11.2525 18.7974 0.812867 35.6267 -16.3468 -4.77605 38.436 10.6936 -0.903268 170.763 22.0038 90.8185 -46.4507 -11.79 6.83257 69.8448 -3.32289 -1.78082 91.3133 12.1703 15.5087 0.723444 6.64526 -89.1968 13.573 1.82472 1.37753 1.90269 1.88357 1.29588 -20.6328 1.3264 1.86218 -0.620159 1.3264 1.86218 -38.016 -56.9558 126.862 -122.483 54.2424 -8.94165 -19.005 -0.382559 -89.2914 -22.2892 -1.36498 2.49239 -112.94 -43.2674 42.1592 47.6631 -63.5963 33.0345 12.4432 -9.43813 -164.22 27.7894 7.16467 22.0623 10.1929 -5.05109 -22.4201 36.1713 0.138964 -1.00097 
94.0808 19.7088 88.8591 -1.6995 -13.9024 56.0263 -171.705 1.64523 96.1263 -8.40633 15.1969 0.373179 37.6051 -16.1766 -5.19176 36.0974 8.24983 2.55738 161.64 26.3547 88.3665 -58.1694 -6.28843 12.3867 73.056 -4.81768 -2.41769 85.6608 2.12231 -3.38763 1.05348 6.5429 -89.5337 13.7839 2.3158 0.627961 2.11491 2.3412 0.52535 -20.4323 2.02 1.29514 -0.419696 2.02 1.29514 76.85 -30.9784 -130.906 -72.1672 56.2738 12.533 -20.6117 -4.96808 -74.6978 -22.8784 -0.882609 -0.21228 -102.887 -39.7539 55.2462 7.14229 -48.3887 -5.1792 18.6565 -23.579 -157.81 21.0078 6.40747 26.3112 5.2262 -4.30391 -20.1719 39.5886 -0.114782 -0.0749047 
92.8286 20.0168 83.2843 -2.86605 -15.555 53.982 -171.422 3.32755 93.801 -7.64061 12.0932 -1.6901 37.1225 -16.7949 -4.67723 38.3397 13.2388 30.9624 150.107 36.1666 86.7972 -75.1599 -5.67722 13.4808 73.1645 -5.19291 -2.58908 76.8961 -3.01823 -16.1087 1.53346 6.54711 -89.7613 13.7841 3.15657 0.0593271 2.11695 3.15613 -0.0798035 -20.4465 2.99266 1.00614 -0.433823 2.99267 1.00612 97.6547 9.52229 -108.571 -6.9692 67.3933 -15.1841 -20.3836 -9.80679 -63.0796 -24.2892 -0.622967 -1.63332 -94.308 -31.5756 65.8963 -16.3033 -41.9385 -25.3878 27.138 -26.8623 -148.352 18.9525 5.83275 26.3637 4.04892 -4.7659 -21.1461 40.616 1.18103 4.32862 
91.7113 19.5268 78.1378 -3.56727 -18.4735 52.054 -172.467 0.478718 92.1126 -7.98741 22.1768 -1.49776 43.1181 -10.5266 0.20954 81.9341 57.3359 -0.0748273 142.016 44.433 86.7791 -87.7229 -5.8884 9.18298 73.1778 -5.46917 -2.73113 73.5004 -1.47694 -12.6975 2.05181 6.77401 -89.8502 13.3396 4.14364 -0.223669 1.67519 4.12976 -0.406134 -20.911 4.01897 1.03409 -0.898385 4.01897 1.03409 102.286 18.7814 -83.4096 40.9144 53.2193 -66.6904 -18.45 -12.5628 -49.3702 -19.9487 -0.969022 0.835042 -80.1747 -13.4055 92.1634 -45.626 -11.7637 -51.0268 42.6676 -30.7639 -131.217 16.8125 5.32646 26.8973 22.6481 -9.49922 -18.7149 21.641 -1.31657 6.68459 
